<?xml version="1.0" encoding="UTF-8" standalone="no"?>
<svg
   width="1024"
   height="1024"
   version="1.1"
   id="svg1"
   sodipodi:docname="cloudlog-owl.svg"
   inkscape:version="1.3.2 (091e20ef0f, 2023-11-25, custom)"
   xmlns:inkscape="http://www.inkscape.org/namespaces/inkscape"
   xmlns:sodipodi="http://sodipodi.sourceforge.net/DTD/sodipodi-0.dtd"
   xmlns="http://www.w3.org/2000/svg"
   xmlns:svg="http://www.w3.org/2000/svg">
  <defs
     id="defs1" />
  <sodipodi:namedview
     id="namedview1"
     pagecolor="#ffffff"
     bordercolor="#111111"
     borderopacity="1"
     inkscape:showpageshadow="0"
     inkscape:pageopacity="0"
     inkscape:pagecheckerboard="1"
     inkscape:deskcolor="#d1d1d1"
     inkscape:zoom="0.39550781"
     inkscape:cx="-336.27654"
     inkscape:cy="149.17531"
     inkscape:window-width="1920"
     inkscape:window-height="1007"
     inkscape:window-x="0"
     inkscape:window-y="0"
     inkscape:window-maximized="1"
     inkscape:current-layer="g1" />
  <g
     id="g1">
    <title
       id="title1">Layer 1</title>
    <path
       id="svg_1"
       fill="#000000"
       d="m 240,125.44441 c 55.05722,14.3373 110.03875,29.01571 165.06175,43.50313 33.42463,-8.94277 65.80682,-27.83874 101.98578,-27.92958 42.76449,-2.92995 85.63117,9.12092 123.0995,28.27938 57.21422,-12.41056 113.51838,-29.69425 170.37124,-43.73729 29.12153,6.53367 -2.51651,44.60832 -11.40407,59.94055 -11.3977,26.06077 -54.64374,41.20068 -61.12743,58.15577 23.85966,38.52445 31.95346,87.26916 15.32626,129.94923 34.0952,43.25022 55.72481,96.85215 57.07931,152.40667 4.00285,49.03844 -18.05362,94.57897 -29.32821,141.25965 -11.0687,29.94638 -15.11395,65.13887 -36.05673,89.77865 4.26568,25.57044 -6.72751,69.8541 -42.71741,77.62707 -35.04179,-0.82049 -64.51018,12.6807 -91.70921,34.43536 -32.28947,19.87775 -70.22442,50.51818 -109.89505,32.07556 -36.33114,-16.3059 -65.76096,-45.12716 -100.95907,-62.81814 -39.18376,5.61209 -87.86978,-17.3886 -86.09316,-62.28375 8.38849,-33.17289 -19.82454,-62.13062 -27.78441,-93.71495 -25.32476,-60.5455 -47.05342,-126.61023 -33.0648,-192.82073 7.06308,-40.6568 24.10573,-79.91342 51.38858,-111.11368 -6.00654,-36.3213 -15.0579,-79.80436 5.93706,-115.41309 34.93976,-34.46959 -29.71235,-35.42275 -41.74336,-66.1055 C 249.89865,182.52877 203.83545,129.60381 240,125.44441 Z m 32,39 c 23.69993,42.00536 77.80233,41.61177 118.57271,54.98175 55.94746,14.48329 102.7783,55.28396 125.8687,108.112 11.50193,5.82801 22.35174,-38.49024 38.03753,-49.5929 29.71006,-39.70595 77.66496,-58.53212 125.16205,-66.26915 32.93021,-6.36132 68.50605,-16.94801 88.35901,-46.2317 -36.69508,5.81058 -73.00147,18.81041 -109.66094,26.87865 -46.06399,8.6694 -93.94431,27.76884 -118.19039,70.71323 -5.30996,23.47612 -35.91314,24.8424 -40.74849,0.0757 -21.25481,-35.45414 -57.97506,-58.74201 -98.3434,-66.09972 C 357.9235,186.59925 314.99809,175.35974 272,164.44441 Z m 180,18 c 22.06553,15.55163 50.00325,30.04474 65.0625,55.3125 18.29603,-9.43835 44.40832,-45.52129 69.9375,-55.26754 -42.71387,-16.70351 -92.39359,-17.92337 -135,-0.045 z m -121.89795,85.11523 c -33.70696,52.09342 -7.79383,131.72029 52.00873,150.43824 46.61434,16.81484 106.12294,-16.362 110.23286,-66.93077 -0.72046,-17.31356 -30.93068,-72.50302 -24.13781,-26.1667 -4.20667,43.75606 -65.36784,61.44518 -93.46403,28.93198 -28.82016,-29.37971 -9.40733,-84.69349 31.61786,-89.14942 40.88525,0.16393 -19.71568,-20.59457 -35.23839,-21.28564 -20.0643,-7.30233 -32.83814,8.01457 -41.01922,24.16231 z m 341.44922,-24.80029 c -17.58796,-0.99624 -83.79068,22.19834 -37.74697,21.92023 44.51338,4.58666 59.99919,68.95192 24.2625,94.56248 -31.12171,26.42584 -84.65975,4.63943 -87.54015,-36.29882 5.86368,-42.14221 -28.83946,18.36597 -23.38602,36.68086 13.48407,52.57354 80.7779,79.44868 126.80085,50.86774 55.11162,-30.54117 66.79328,-113.25749 23.31047,-158.56843 -5.11572,-10.26255 -15.47461,-11.83534 -25.70068,-9.16406 z M 520.2142,370.67774 c -27.85544,14.50616 11.30894,42.32772 6.99306,9.95383 l -2.70735,-4.33093 z M 312,402.44441 c -28.92267,21.70338 -37.574,57.64143 -40.11363,91.82117 -4.78713,36.31855 15.78217,72.19234 49.68108,86.09168 23.91666,11.94302 5.72817,-42.32587 11.94244,-58.41118 -10.81497,-33.73875 17.21963,-49.2717 46.20721,-37.44187 14.48345,1.89093 33.58734,9.23073 8.86405,2.95007 46.93335,7.02283 96.07484,20.10318 131.38479,53.60521 -11.65826,24.36057 35.4656,-25.66759 50.89676,-25.11219 39.29225,-18.01777 81.55333,-31.92396 125.10638,-32.96379 19.4518,16.63488 4.96378,52.84967 9.80425,77.67381 -11.04388,44.92941 36.76,10.08985 50.4177,-8.15019 28.95146,-41.62472 6.05938,-95.14649 -17.10191,-133.85427 -16.51762,-36.91381 -42.92399,16.58071 -34.41101,38.33612 -18.51739,25.19531 -23.41145,-13.68383 -30.28314,-15.43515 -44.03852,18.51995 -98.21693,6.28412 -129.39497,-30.10942 -10.82037,14.56748 -28.03345,47.62195 -40.57835,13.57989 -15.34238,-31.49328 -40.2808,27.51935 -67.50142,21.88924 -24.80053,9.98832 -57.75702,-3.28937 -76.99833,-3.65272 5.77035,30.22292 -38.30352,22.94844 -25.79488,-5.07276 C 336.34731,423.15933 322.60507,409.5937 312,402.44441 Z m 50,110 c -2.632,41.83379 -0.55537,84.82464 -0.92479,127.07103 11.12736,18.42017 56.28623,1.99304 73.04871,27.49148 31.635,24.18365 2.89814,62.95905 7.44102,86.93443 10.12388,43.18201 77.75108,2.79892 64.55036,-34.83324 -1.8458,-47.3706 2.96896,-95.4306 -1.13798,-142.37791 -19.81912,-28.21863 -54.92063,-43.23338 -86.7722,-54.63034 -18.20575,-5.65819 -37.15481,-8.9108 -56.20512,-9.65545 z m 170.64456,63.93951 c 1.41408,60.07675 -2.95716,121.9525 14.64523,180.15205 9.1976,46.26521 75.47004,-5.45992 45.5925,-30.20895 -15.11208,-36.88655 16.26828,-78.32081 55.07275,-77.88261 9.38185,-2.90653 31.70263,7.12588 29.04496,-7.82016 0,-42.72661 0,-85.45323 0,-128.17984 -53.85307,4.86648 -101.92389,32.06138 -144.35544,63.93951 z m -263.68221,-2.65988 c 5.3162,32.6659 20.37569,78.99452 43.06843,95.33113 39.13205,-16.00018 22.67275,-62.09327 -12.21424,-71.00767 -11.20746,-6.25351 -19.93695,-19.20335 -30.85419,-24.32346 z M 763,580.13191 c -22.57889,22.62089 -80.43322,38.14219 -51.37513,76.84135 28.30656,33.34911 38.33016,-25.93959 49.5937,-47.26604 1.02499,-5.03935 13.31223,-41.222 1.78143,-29.57531 z m -433.3125,110.625 c -27.40618,36.32141 18.37332,58.52398 49.67188,48.12019 47.10048,11.58197 57.73582,-66.31504 7.42578,-61.96474 -19.56359,0.2236 -42.77602,-2.76832 -57.09766,13.84455 z M 624,687.44441 c -24.49673,35.63921 21.46453,59.91249 52.193,51.38775 50.2725,16.64329 52.73243,-63.45457 5.47253,-61.56445 -19.30034,1.20902 -42.45109,-5.5638 -57.66553,10.1767 z m 2.34375,76.57422 c -28.1784,35.08933 27.18953,54.7307 55.24097,43.06348 32.74282,-6.09021 28.6558,-54.53443 -7.90034,-39.93383 -15.93951,2.18284 -32.85922,-3.05443 -47.34063,-3.12965 z m -219.58411,-0.7157 c -21.26962,14.25778 -74.45388,-14.60501 -72.43116,22.52505 11.86857,29.5193 63.19875,31.73562 82.75471,9.45062 7.6755,-9.58349 3.82174,-32.96632 -10.32355,-31.97567 z" />
    <path
       id="svg_2"
       fill="#000000"
       d="m 472,462 c 17.79246,5.49386 56.93959,35.72165 19.24753,41.5756 C 474.27684,500.59025 430.93213,466.16296 472,462 Z" />
    <path
       id="svg_3"
       fill="#000000"
       d="m 576,462 c 31.77705,23.60154 -56.52483,65.98845 -41.67519,21.01393 C 547.61677,476.31759 560.51206,461.25103 576,462 Z" />
    <path
       id="svg_4"
       fill="#000000"
       d="m 487.8125,591.125 c -13.61411,38.65808 -49.60779,-22.14645 -76.14293,-19.55087 -35.46326,0.32496 -31.42478,-42.59459 4.23772,-26.18217 26.44232,9.43215 54.52273,23.17809 71.90521,45.73304 z" />
    <path
       id="svg_5"
       fill="#000000"
       d="m 649.78516,543.05469 c 16.16452,31.3494 -48.70987,31.42299 -66.4146,49.39503 -12.47826,15.50945 -43.85419,14.84483 -26.96026,-9.39897 24.02552,-23.48789 57.73361,-37.07015 90.46335,-41.53384 z" />
    <path
       id="svg_6"
       fill="#000000"
       d="m 441,609 c 1.55826,34.49753 -85.7575,-5.17664 -44.38338,-19.48973 C 412.8677,589.01788 430.71625,596.30475 441,609 Z" />
    <path
       id="svg_7"
       fill="#000000"
       d="m 648.94531,590.27734 c 24.67512,22.82276 -55.94504,49.77267 -50.07022,17.18242 11.56828,-11.60038 33.43802,-20.72891 50.07022,-17.18242 z" />
    <path
       id="svg_8"
       fill="#000000"
       d="m 575.375,628.625 c 33.85632,23.37661 -44.46725,45.12994 -15.55308,7.44634 4.58988,-3.17008 9.2765,-8.943 15.55308,-7.44634 z" />
    <path
       id="svg_10"
       d=""
       opacity="0"
       fill="#000000" />
  </g>
</svg>
