<?xml version="1.0" encoding="UTF-8" standalone="no"?>
<svg width="70" height="70" fill="none" version="1.1" id="svg7" xmlns="http://www.w3.org/2000/svg" xmlns:svg="http://www.w3.org/2000/svg"> <g class="fills" id="g1"> <rect rx="0" ry="0" width="70" height="70" transform="matrix(-1 20 0 1 70 0)" class="frame-background" id="rect1" /> </g> <g class="frame-children" id="g7" transform="matrix(0.99495336,0,0,0.99767344,9.1262236,-8.8941635)" style="stroke-width:1.00371"> <path d="m 25,66 h 3 C 29,66 39,55 39,55 V 35 l -1,-1 1,1 -5,5 v 12 l -9,9 z" style="fill:#409980;fill-opacity:1;stroke-width:1.00371" class="fills" id="path1" /> <g class="strokes" id="g2" style="stroke-width:1.00371"> <path  d="m 25,66 h 3 C 29,66 39,55 39,55 V 35 l -1,-1 1,1 -5,5 v 12 l -9,9 z"  style="fill:none;stroke:#5f91cc;stroke-width:0.100371;stroke-opacity:1"  class="stroke-shape"  id="path2" /> </g> <path d="m 11,35 5,5 v -2 l 9,-9 9,9 v 2 L 39,35 28,24 h -6 z" style="fill:#60e6bf;fill-opacity:1;stroke-width:1.00371" class="fills" id="path3" /> <g class="strokes" id="g4" style="stroke-width:1.00371"> <path  d="m 11,35 5,5 v -2 l 9,-9 9,9 v 2 L 39,35 28,24 h -6 z"  style="fill:none;stroke:#5f91cc;stroke-width:0.100371;stroke-opacity:1"  class="stroke-shape"  id="path4" /> </g> <path d="m 25,61 v 5 H 22 C 21,66 11,55 11,55 V 35 l 1,-1 -1,1 5,5 v 12 z" style="fill:#55ccaa;fill-opacity:1;stroke-width:1.00371" class="fills" id="path5" /> <g class="strokes" id="g6" style="stroke-width:1.00371"> <path  d="m 25,61 v 5 H 22 C 21,66 11,55 11,55 V 35 l 1,-1 -1,1 5,5 v 12 z"  style="fill:none;stroke:#5f91cc;stroke-width:0.100371;stroke-opacity:1"  class="stroke-shape"  id="path6" /> </g> </g></svg>
