<svg width="50" xmlns="http://www.w3.org/2000/svg" height="90" fill="none"><g class="fills"><rect rx="0" ry="0" width="50" height="90" transform="matrix(-1 0 0 1 50 0)" class="frame-background"/></g><g class="frame-children"><path d="M25 66h3c1 0 11-11 11-11V35l-1-1 1 1-5 5v12l-9 9v5Z" style="fill: rgb(64, 153, 128); fill-opacity: 1;" class="fills"/><g class="strokes"><path d="M25 66h3c1 0 11-11 11-11V35l-1-1 1 1-5 5v12l-9 9v5Z" style="fill: none; stroke-width: 0.1; stroke: rgb(95, 145, 204); stroke-opacity: 1;" class="stroke-shape"/></g><path d="m11 35 5 5v-2l9-9 9 9v2l5-5-11-11h-6L11 35Z" style="fill: rgb(96, 230, 191); fill-opacity: 1;" class="fills"/><g class="strokes"><path d="m11 35 5 5v-2l9-9 9 9v2l5-5-11-11h-6L11 35Z" style="fill: none; stroke-width: 0.1; stroke: rgb(95, 145, 204); stroke-opacity: 1;" class="stroke-shape"/></g><path d="M25 61v5h-3c-1 0-11-11-11-11V35l1-1-1 1 5 5v12l9 9Z" style="fill: rgb(85, 204, 170); fill-opacity: 1;" class="fills"/><g class="strokes"><path d="M25 61v5h-3c-1 0-11-11-11-11V35l1-1-1 1 5 5v12l9 9Z" style="fill: none; stroke-width: 0.1; stroke: rgb(95, 145, 204); stroke-opacity: 1;" class="stroke-shape"/></g></g></svg>